:SAMPLES-PER-SECOND 30
:FULLY-SPECIFIED
:DEGREES
308
root  7.11158 39.5433 -1.21623 3.63609 71.7854 5.32243
RightUpLeg  -20.2941 -11.8852 -5.47034
RightLeg  5.52194 -14.3552 3.79472
RightFoot  -1.68411 -0.462839 5.3286
RightToes  0.00048216 0.542163 -0.142577
Spine  9.60462 -0.780312 -1.26474
Spine1  9.40413 -0.751087 -1.23371
HEad  5.01398 -1.80549 1.51769
LeftShoulder1  9.31289 -13.3153 -48.3381
LeftArm  -4.39709 14.1159 -24.5977
LeftForeArm  22.9887 -14.4925 -5.64205
LeftHand  -0.25398 0.0180481 5.50724
RightShoulder  5.74922 9.78227 37.2558
RightArm  -0.0321665 -16.1779 36.8886
RightForeArm  -2.86204 20.6697 5.27108
RightHand  -0.88977 0.752422 -16.8554
LeftUpLeg  13.0926 5.78877 -1.98608
LeftLeg  5.97666 22.0375 -3.75315
LeftFoot  -16.7418 -0.0842349 -3.91983
LeftToes  1.06244e-005 4.65856e-005 -8.18505e-006
309
root  7.77454 39.319 -0.900013 5.27875 70.8092 7.09045
RightUpLeg  -20.5397 -9.76511 -6.63312
RightLeg  2.06322 -18.4006 5.13815
RightFoot  -0.959626 -0.509304 5.5185
RightToes  0.00048216 0.542163 -0.142577
Spine  10.4228 -0.727508 -1.35421
Spine1  9.6929 -0.633319 -1.4936
HEad  4.72759 -2.08394 0.885255
LeftShoulder1  9.31508 -13.2647 -48.4963
LeftArm  -4.16988 13.1834 -24.8317
LeftForeArm  22.0058 -15.997 -5.19462
LeftHand  -0.25398 0.0180481 5.50724
RightShoulder  5.80061 9.93771 37.1412
RightArm  -1.51224 -16.8172 36.8507
RightForeArm  -0.62242 18.2259 5.72803
RightHand  -0.802461 0.425094 -16.0415
LeftUpLeg  14.3535 5.85292 -2.51781
LeftLeg  6.12924 22.7653 -3.84204
LeftFoot  -17.648 -0.140539 -4.47451
LeftToes  1.06244e-005 4.65856e-005 -8.18505e-006
310
root  8.52553 39.0646 -0.527435 6.57806 70.1073 8.51799
RightUpLeg  -21.2015 -9.88912 -6.77151
RightLeg  1.56037 -19.5998 5.40242
RightFoot  -0.135978 -0.476501 4.85017
RightToes  0.00048216 0.542163 -0.142577
Spine  11.1817 -0.777857 -1.2731
Spine1  10.0347 -0.642742 -1.68729
HEad  4.31283 -2.24032 0.280453
LeftShoulder1  9.30361 -13.2132 -48.5862
LeftArm  -4.04951 12.2306 -25.1505
LeftForeArm  20.9414 -17.3277 -4.81333
LeftHand  -0.25398 0.0180481 5.50724
RightShoulder  5.89412 10.1398 37.1854
RightArm  -3.41971 -17.432 36.5114
RightForeArm  2.42036 15.8615 6.21423
RightHand  -0.708105 0.0226296 -15.1856
LeftUpLeg  15.8028 5.98254 -2.82131
LeftLeg  6.33069 23.0586 -3.90864
LeftFoot  -18.7375 -0.231292 -5.29591
LeftToes  1.06244e-005 4.65856e-005 -8.18505e-006
311
root  9.35382 38.8266 -0.0924092 7.0206 69.7924 8.99307
RightUpLeg  -22.3223 -10.9825 -6.05288
RightLeg  3.96418 -18.968 4.69862
RightFoot  1.73866 -0.169133 1.64972
RightToes  0.00048216 0.542163 -0.142577
Spine  11.8483 -0.924998 -0.855295
Spine1  10.5687 -0.849576 -1.49206
HEad  3.89017 -2.31703 -0.256892
LeftShoulder1  9.31397 -13.1925 -48.7013
LeftArm  -3.99729 11.1158 -25.4781
LeftForeArm  20.0791 -18.0793 -4.63385
LeftHand  -0.25398 0.0180481 5.50724
RightShoulder  5.98867 10.2888 37.3974
RightArm  -5.22144 -17.9626 35.8866
RightForeArm  4.94314 13.8951 6.52093
RightHand  -0.63147 -0.390568 -14.6161
LeftUpLeg  17.5265 6.1143 -2.54769
LeftLeg  6.20839 22.4396 -4.08732
LeftFoot  -19.7132 -0.402577 -7.10697
LeftToes  1.06244e-005 4.65856e-005 -8.18505e-006
312
root  10.2704 38.6306 0.415626 6.04248 69.6596 7.82735
RightUpLeg  -24.0901 -13.9951 -3.63991
RightLeg  8.34181 -15.1455 3.0017
RightFoot  4.70467 0.390316 -2.53669
RightToes  0.00048216 0.542163 -0.142577
Spine  12.5113 -1.08812 0.109366
Spine1  11.0653 -1.15584 -0.922505
HEad  3.31082 -2.27427 -0.905842
LeftShoulder1  9.33946 -13.1913 -48.8387
LeftArm  -4.28675 10.1468 -26.02
LeftForeArm  19.6183 -18.5189 -4.51657
LeftHand  -0.25398 0.0180481 5.50724
RightShoulder  6.02259 10.3298 37.51
RightArm  -6.72936 -18.4496 35.2174
RightForeArm  6.49837 12.5366 6.59462
RightHand  -0.544728 -0.964836 -14.1601
LeftUpLeg  19.0396 6.4041 -1.45222
LeftLeg  6.63128 21.427 -3.98328
LeftFoot  -20.1502 -0.556232 -8.78155
LeftToes  1.06244e-005 4.65856e-005 -8.18505e-006
313
root  11.2824 38.483 0.994498 3.48282 69.4089 5.00656
RightUpLeg  -26.2203 -19.1725 0.671726
RightLeg  13.2242 -8.24724 0.785461
RightFoot  6.95167 0.848036 -4.99444
RightToes  0.00048216 0.542163 -0.142577
Spine  13.3353 -1.34449 1.70536
Spine1  11.1775 -1.39094 -0.541742
HEad  2.2703 -2.01988 -1.74902
LeftShoulder1  9.35622 -13.1959 -48.9132
LeftArm  -5.03306 9.85654 -26.8341
LeftForeArm  19.3514 -19.4596 -4.26295
LeftHand  -0.25398 0.0180481 5.50724
RightShoulder  6.00359 10.3161 37.4188
RightArm  -8.03733 -18.9031 34.6814
RightForeArm  7.11407 11.8503 6.48308
RightHand  -0.462596 -1.53032 -13.6814
LeftUpLeg  20.1853 7.42882 0.601789
LeftLeg  8.36226 20.0978 -3.26402
LeftFoot  -19.951 -0.620916 -9.7981
LeftToes  1.06244e-005 4.65856e-005 -8.18505e-006
314
root  12.3801 38.3797 1.63225 -0.00286865 68.8662 1.36211
RightUpLeg  -27.6254 -22.8933 4.60171
RightLeg  17.6575 -3.0903 -1.01003
RightFoot  6.54049 0.953076 -5.76991
RightToes  0.00048216 0.542163 -0.142577
Spine  14.3862 -1.7827 3.72544
Spine1  11.046 -1.5725 -0.502174
HEad  1.03467 -1.43252 -2.71586
LeftShoulder1  9.36611 -13.2159 -48.9064
LeftArm  -5.88194 10.4492 -27.5283
LeftForeArm  19.0654 -21.2578 -3.98423
LeftHand  -0.25398 0.0180481 5.50724
RightShoulder  6.00882 10.3426 37.3747
RightArm  -9.18391 -19.1156 34.1893
RightForeArm  7.00135 11.6556 6.30307
RightHand  -0.427676 -1.71662 -13.2432
LeftUpLeg  21.3771 11.2135 4.22481
LeftLeg  11.1597 15.5959 -1.89549
LeftFoot  -19.2057 -0.74464 -12.4752
LeftToes  1.06244e-005 4.65856e-005 -8.18505e-006
315
root  13.5097 38.3361 2.31852 -3.01929 68.1555 -1.78537
RightUpLeg  -27.2523 -22.3433 5.71434
RightLeg  21.2711 -3.19394 -1.6426
RightFoot  3.90075 0.934251 -6.79196
RightToes  0.00048216 0.542163 -0.142577
Spine  15.4137 -2.32617 5.4852
Spine1  10.9497 -1.83096 -0.311841
HEad  0.428634 -0.507877 -3.74138
LeftShoulder1  9.37963 -13.2632 -48.8388
LeftArm  -6.43141 11.5506 -27.7876
LeftForeArm  19.1776 -23.2247 -3.98927
LeftHand  -0.25398 0.0180481 5.50724
RightShoulder  6.0587 10.4074 37.5258
RightArm  -10.1093 -18.8378 33.7
RightForeArm  6.67869 11.6816 6.1391
RightHand  -0.421178 -1.64156 -12.7827
LeftUpLeg  21.9372 17.6307 8.78643
LeftLeg  15.4589 7.82921 0.46908
LeftFoot  -17.0214 -0.77121 -17.9323
LeftToes  1.06244e-005 4.65856e-005 -8.18505e-006
316
root  14.6042 38.3728 3.0353 -4.78548 67.4489 -3.90645
RightUpLeg  -26.3624 -21.9111 6.49393
RightLeg  23.6396 -3.33228 -1.81863
RightFoot  0.936834 0.888914 -8.1747
RightToes  0.00048216 0.542163 -0.142577
Spine  16.1292 -2.72145 6.64478
Spine1  10.8494 -2.07456 0.246359
HEad  0.754648 0.459739 -4.70988
LeftShoulder1  9.37266 -13.32 -48.6368
LeftArm  -6.37637 12.4669 -27.9197
LeftForeArm  19.887 -24.4284 -4.17384
LeftHand  -0.25398 0.0180481 5.50724
RightShoulder  6.08085 10.4444 37.5674
RightArm  -10.733 -18.1366 33.5216
RightForeArm  6.43429 11.9873 5.99129
RightHand  -0.392766 -1.75452 -12.2487
LeftUpLeg  18.9351 18.5459 10.1545
LeftLeg  23.5861 6.79565 3.97006
LeftFoot  -11.2828 0.061577 -21.2174
LeftToes  1.06244e-005 4.65856e-005 -8.18505e-006
317
root  15.626 38.4565 3.73654 -6.05064 66.7657 -5.73935
RightUpLeg  -25.2969 -21.7333 7.31171
RightLeg  24.9532 -3.149 -1.8299
RightFoot  -1.4728 0.730598 -8.52555
RightToes  0.00048216 0.542163 -0.142577
Spine  16.6256 -2.87555 7.81087
Spine1  10.6713 -2.046 0.700608
HEad  1.36719 1.02798 -5.32465
LeftShoulder1  9.30389 -13.3489 -48.1935
LeftArm  -5.93181 12.6821 -28.3808
LeftForeArm  20.7019 -24.7387 -4.20268
LeftHand  -0.25398 0.0180481 5.50724
RightShoulder  6.04755 10.4868 37.2097
RightArm  -10.7187 -17.2547 33.8637
RightForeArm  5.70336 12.9528 5.86932
RightHand  -0.355288 -2.02784 -11.905
LeftUpLeg  12.1276 14.5124 9.01552
LeftLeg  35.5423 10.6424 8.40232
LeftFoot  -1.12189 1.37151 -16.1738
LeftToes  1.06244e-005 4.65856e-005 -8.18505e-006
318
root  16.5539 38.4616 4.36055 -8.09227 66.1293 -8.24126
RightUpLeg  -24.2079 -21.2879 8.1968
RightLeg  26.349 -3.28417 -2.00826
RightFoot  -3.84005 0.487395 -7.80371
RightToes  0.00048216 0.542163 -0.142577
Spine  17.2076 -3.04689 9.75716
Spine1  10.6888 -1.68161 0.685917
HEad  1.65956 1.05861 -5.35268
LeftShoulder1  9.19077 -13.3457 -47.609
LeftArm  -5.90361 12.2286 -28.9843
LeftForeArm  21.2882 -24.7543 -4.175
LeftHand  -0.25398 0.0180481 5.50724
RightShoulder  6.03722 10.6261 36.7251
RightArm  -9.46205 -16.1036 34.3164
RightForeArm  3.84051 14.6947 5.78799
RightHand  -0.361015 -2.00776 -12.0285
LeftUpLeg  4.36471 11.6501 8.57244
LeftLeg  47.3204 9.66838 11.3405
LeftFoot  8.44852 1.07781 -6.25186
LeftToes  1.06244e-005 4.65856e-005 -8.18505e-006
